<mxfile host="app.diagrams.net" modified="2023-08-09T09:16:30.104Z" agent="Mozilla/5.0 (Macintosh; Intel Mac OS X 10_15_7) AppleWebKit/537.36 (KHTML, like Gecko) Chrome/114.0.0.0 Safari/537.36" version="21.6.7" etag="rIe4cA4zqlLg9t4mWipJ" type="github">
  <diagram name="第 1 页" id="HDqc87Pdq03O-eS8em8f">
    <mxGraphModel>
      <root>
        <mxCell id="0" />
        <mxCell id="1" parent="0" />
      </root>
    </mxGraphModel>
  </diagram>
</mxfile>
